<svg width="425px" height="42px" viewBox="180 0 135 42" version="1.1" xmlns="http://www.w3.org/2000/svg" xmlns:xlink="http://www.w3.org/1999/xlink">
    <defs></defs>
    <g id="openid-wordmark" stroke="none" stroke-width="1" fill="none" fill-rule="evenodd" transform="translate(35.000000, 0.000000)">
        <polygon id="Shape" fill="#F48018" points="20.2816901 3.43248731 20.2816901 37.5228426 20.2816901 41.8081218 27.0422535 38.5888325 27.0422535 0.106598985"></polygon>
        <polyline id="Shape" fill="#AEB0B3" points="43.6901408 14.6893401 44.6408451 24.4751269 31.5633803 21.5969543"></polyline>
        <path d="M28.2253521,12.7279188 L28.2253521,17.0558376 C31.056338,17.5461929 33.5915493,18.484264 35.6197183,19.742132 L40.3943662,16.7573604 C37.1408451,14.7319797 32.9366197,13.3035533 28.2253521,12.7279188 M6.76056338,27.2040609 C6.76056338,22.364467 11.9788732,18.2923858 19.0985915,17.0558376 L19.0985915,12.7279188 C8.21830986,14.0497462 0,20.0406091 0,27.2040609 C0,34.6446701 8.80985915,40.7847716 20.2816901,41.8081218 L20.2816901,37.5228426 C12.5704225,36.5634518 6.76056338,32.2994924 6.76056338,27.2040609" id="Shape" fill="#AEB0B3"></path>
    </g>
</svg>
